<?xml version="1.0" standalone="no"?>
<!DOCTYPE svg PUBLIC "-//W3C//DTD SVG 20010904//EN"
 "http://www.w3.org/TR/2001/REC-SVG-20010904/DTD/svg10.dtd">
<svg version="1.0" xmlns="http://www.w3.org/2000/svg"
 width="700.000000pt" height="700.000000pt" viewBox="0 0 700.000000 700.000000"
 preserveAspectRatio="xMidYMid meet">
<metadata>
Created by potrace 1.14, written by Peter Selinger 2001-2017
</metadata>
<g transform="translate(0.000000,700.000000) scale(0.100000,-0.100000)"
fill="#000000" stroke="none">
<path d="M3280 6994 c-19 -2 -84 -9 -145 -14 -578 -56 -1180 -283 -1660 -625
-237 -169 -531 -446 -709 -670 -416 -521 -673 -1147 -748 -1820 -17 -155 -17
-575 0 -730 52 -469 198 -931 418 -1327 290 -523 731 -983 1239 -1294 439
-269 920 -432 1460 -496 145 -17 576 -17 730 0 822 91 1556 447 2131 1034 203
206 348 390 487 618 274 449 433 916 499 1465 16 136 16 592 0 730 -86 725
-352 1347 -803 1885 -122 145 -351 370 -494 484 -510 407 -1117 661 -1775 742
-117 15 -553 27 -630 18z m-975 -2166 c-4 -18 -48 -251 -100 -518 -51 -267
-92 -486 -91 -487 1 -1 31 23 66 53 72 61 195 125 280 145 75 18 240 16 318
-5 319 -82 483 -363 483 -826 1 -243 -39 -464 -122 -676 -62 -160 -129 -264
-244 -380 -83 -83 -114 -107 -185 -142 -135 -66 -227 -85 -384 -80 -112 4
-142 9 -206 33 -99 37 -163 79 -231 153 l-57 61 -39 -107 -38 -107 -234 -3
-233 -2 5 27 c3 16 117 673 253 1461 l248 1432 259 0 258 0 -6 -32z m2285 22
c0 -5 -43 -232 -95 -504 -52 -272 -95 -502 -95 -511 0 -12 17 -2 57 35 121
111 256 162 428 163 192 1 322 -48 441 -167 224 -223 284 -675 155 -1171 -50
-189 -136 -368 -242 -500 -151 -188 -357 -285 -603 -285 -195 0 -329 52 -452
175 l-72 72 -37 -109 -37 -108 -229 0 c-125 0 -230 3 -232 8 -3 5 495 2892
502 2910 3 8 511 1 511 -8z"/>
<path d="M2345 3596 c-82 -20 -171 -74 -231 -140 -30 -33 -57 -69 -59 -81 -3
-11 -36 -200 -74 -420 l-69 -400 17 -41 c55 -125 198 -196 365 -180 160 15
291 123 362 297 77 190 117 546 80 720 -8 37 -26 90 -40 118 -58 113 -199 164
-351 127z"/>
<path d="M4621 3595 c-30 -9 -77 -28 -105 -43 -59 -31 -158 -128 -174 -169
-12 -32 -142 -785 -142 -823 0 -43 60 -132 113 -167 67 -45 116 -57 227 -57
86 0 101 3 163 31 42 20 88 53 121 86 128 128 206 404 206 732 0 228 -54 348
-179 401 -53 23 -166 27 -230 9z"/>
</g>
</svg>
