<svg width="25" height="24" viewBox="0 0 25 24" fill="none" xmlns="http://www.w3.org/2000/svg">
<path d="M10.5 14.5347C11.7335 13.8218 13.2663 13.8218 14.4999 14.5347M2.5 15L3.20149 7.98511C3.22808 7.71915 3.24138 7.58617 3.26178 7.47208C3.50222 6.12702 4.6212 5.11436 5.98352 5.00894C6.09907 5 6.23271 5 6.5 5M22.5 15L21.7985 7.98511C21.7719 7.71916 21.7586 7.58617 21.7382 7.47208C21.4978 6.12702 20.3788 5.11436 19.0165 5.00894C18.9009 5 18.7673 5 18.5 5M9.32843 12.1716C10.8905 13.7337 10.8905 16.2663 9.32843 17.8284C7.76634 19.3905 5.23367 19.3905 3.67157 17.8284C2.10948 16.2663 2.10948 13.7337 3.67157 12.1716C5.23366 10.6095 7.76633 10.6095 9.32843 12.1716ZM21.3284 12.1716C22.8905 13.7337 22.8905 16.2663 21.3284 17.8284C19.7663 19.3905 17.2337 19.3905 15.6716 17.8284C14.1095 16.2663 14.1095 13.7337 15.6716 12.1716C17.2337 10.6095 19.7663 10.6095 21.3284 12.1716Z" stroke="#3A3A3A" stroke-width="2" stroke-linecap="round" stroke-linejoin="round"/>
</svg>
