<svg width="25" height="24" viewBox="0 0 25 24" fill="none" xmlns="http://www.w3.org/2000/svg">
<path d="M2.5 12C2.5 17.5228 6.97715 22 12.5 22C14.1569 22 15.5 20.6569 15.5 19V18.5C15.5 18.0356 15.5 17.8034 15.5257 17.6084C15.7029 16.2622 16.7622 15.2029 18.1084 15.0257C18.3034 15 18.5356 15 19 15H19.5C21.1569 15 22.5 13.6569 22.5 12C22.5 6.47715 18.0228 2 12.5 2C6.97715 2 2.5 6.47715 2.5 12Z" stroke="#3A3A3A" stroke-width="2" stroke-linecap="round" stroke-linejoin="round"/>
<path d="M7.5 13C8.05228 13 8.5 12.5523 8.5 12C8.5 11.4477 8.05228 11 7.5 11C6.94772 11 6.5 11.4477 6.5 12C6.5 12.5523 6.94772 13 7.5 13Z" stroke="#3A3A3A" stroke-width="2" stroke-linecap="round" stroke-linejoin="round"/>
<path d="M16.5 9C17.0523 9 17.5 8.55228 17.5 8C17.5 7.44772 17.0523 7 16.5 7C15.9477 7 15.5 7.44772 15.5 8C15.5 8.55228 15.9477 9 16.5 9Z" stroke="#3A3A3A" stroke-width="2" stroke-linecap="round" stroke-linejoin="round"/>
<path d="M10.5 8C11.0523 8 11.5 7.55228 11.5 7C11.5 6.44772 11.0523 6 10.5 6C9.94772 6 9.5 6.44772 9.5 7C9.5 7.55228 9.94772 8 10.5 8Z" stroke="#3A3A3A" stroke-width="2" stroke-linecap="round" stroke-linejoin="round"/>
</svg>
